<?xml version="1.0" encoding="UTF-8"?>
<!DOCTYPE svg PUBLIC "-//W3C//DTD SVG 1.1//EN" "http://www.w3.org/Graphics/SVG/1.1/DTD/svg11.dtd">
<svg xmlns="http://www.w3.org/2000/svg" version="1.1" width="450px" height="168px" style="shape-rendering:geometricPrecision; text-rendering:geometricPrecision; image-rendering:optimizeQuality; fill-rule:evenodd; clip-rule:evenodd" xmlns:xlink="http://www.w3.org/1999/xlink">
<g><path style="opacity:0.956" fill="#fefffe" d="M 30.5,19.5 C 37.0555,19.4728 43.0555,21.3062 48.5,25C 56.6408,31.4736 64.4741,38.307 72,45.5C 91.9424,40.5782 111.942,35.9116 132,31.5C 133.167,31.6667 134.333,31.8333 135.5,32C 139.667,36.1667 143.833,40.3333 148,44.5C 148.624,46.4645 148.124,48.1311 146.5,49.5C 131.006,57.7463 115.672,66.2463 100.5,75C 108.333,82.8333 116.167,90.6667 124,98.5C 130.302,95.9654 136.802,94.4654 143.5,94C 148.229,97.0607 151.896,101.061 154.5,106C 153.899,107.605 152.899,108.938 151.5,110C 144,115.5 136.5,121 129,126.5C 123.167,134.333 117.333,142.167 111.5,150C 109.833,150.667 108.167,150.667 106.5,150C 103.333,146.833 100.167,143.667 97,140.5C 98.1765,133.462 99.5099,126.462 101,119.5C 93.6523,111.985 86.1523,104.652 78.5,97.5C 69.433,112.577 60.7663,127.91 52.5,143.5C 50.5787,144.641 48.5787,144.808 46.5,144C 42.6667,140.833 38.8333,137.667 35,134.5C 34.3333,132.5 34.3333,130.5 35,128.5C 40.3028,107.966 44.6361,87.2997 48,66.5C 39.5501,59.0563 32.2168,50.723 26,41.5C 23.0393,34.9881 22.8726,28.4881 25.5,22C 27.3146,21.2432 28.9812,20.4098 30.5,19.5 Z"/></g>
<g><path style="opacity:0.824" fill="#fefffe" d="M 156.5,19.5 C 166.5,19.5 176.5,19.5 186.5,19.5C 186.5,21.5 186.5,23.5 186.5,25.5C 182.833,25.5 179.167,25.5 175.5,25.5C 175.5,38.5 175.5,51.5 175.5,64.5C 173.167,64.5 170.833,64.5 168.5,64.5C 168.5,51.5 168.5,38.5 168.5,25.5C 164.5,25.5 160.5,25.5 156.5,25.5C 156.5,23.5 156.5,21.5 156.5,19.5 Z"/></g>
<g><path style="opacity:0.801" fill="#fefffe" d="M 191.5,19.5 C 197.888,19.3119 204.222,19.8119 210.5,21C 217.078,24.5612 219.245,30.0612 217,37.5C 215.878,39.6238 214.378,41.4571 212.5,43C 214.667,43.8333 216.167,45.3333 217,47.5C 218.016,53.1515 218.85,58.8182 219.5,64.5C 216.881,64.7683 214.381,64.435 212,63.5C 211.339,57.8257 210.172,52.3257 208.5,47C 205.312,45.6842 201.978,45.1842 198.5,45.5C 198.5,51.8333 198.5,58.1667 198.5,64.5C 195.833,64.5 193.167,64.5 190.5,64.5C 190.184,49.4219 190.517,34.4219 191.5,19.5 Z M 198.5,25.5 C 209.528,24.401 212.861,28.901 208.5,39C 205.274,40.1989 201.941,40.6989 198.5,40.5C 198.5,35.5 198.5,30.5 198.5,25.5 Z"/></g>
<g><path style="opacity:0.833" fill="#fefffe" d="M 234.5,19.5 C 237.119,19.2317 239.619,19.565 242,20.5C 246.482,35.0964 250.648,49.763 254.5,64.5C 252.076,64.8076 249.743,64.4742 247.5,63.5C 246.346,60.5482 245.346,57.5482 244.5,54.5C 240.285,53.2023 236.118,53.2023 232,54.5C 230.85,57.7679 230.016,61.1012 229.5,64.5C 226.813,64.6641 224.146,64.4974 221.5,64C 226.376,49.328 230.71,34.4947 234.5,19.5 Z M 237.5,33.5 C 238.117,33.6107 238.617,33.944 239,34.5C 240.067,38.5349 241.234,42.5349 242.5,46.5C 239.914,47.48 237.247,47.8134 234.5,47.5C 235.497,42.8394 236.497,38.1727 237.5,33.5 Z"/></g>
<g><path style="opacity:0.847" fill="#fefffe" d="M 258.5,19.5 C 261.119,19.2317 263.619,19.565 266,20.5C 271,29.8333 276,39.1667 281,48.5C 281.5,38.8391 281.666,29.1724 281.5,19.5C 283.833,19.5 286.167,19.5 288.5,19.5C 288.5,34.5 288.5,49.5 288.5,64.5C 286.076,64.8076 283.743,64.4742 281.5,63.5C 276.333,53.8333 271.167,44.1667 266,34.5C 265.5,44.4944 265.334,54.4944 265.5,64.5C 263.167,64.5 260.833,64.5 258.5,64.5C 258.5,49.5 258.5,34.5 258.5,19.5 Z"/></g>
<g><path style="opacity:0.811" fill="#fefffe" d="M 304.5,19.5 C 315.949,17.5268 321.949,22.1935 322.5,33.5C 320.167,33.5 317.833,33.5 315.5,33.5C 315.876,28.7036 313.709,25.7036 309,24.5C 302.635,27.0885 301.468,31.0885 305.5,36.5C 311.177,38.6654 316.343,41.6654 321,45.5C 325.742,57.0104 321.909,63.6771 309.5,65.5C 300.141,64.8079 295.141,59.8079 294.5,50.5C 296.833,50.5 299.167,50.5 301.5,50.5C 301.817,57.6492 305.484,60.4825 312.5,59C 317.833,55 317.833,51 312.5,47C 306.411,45.2115 301.244,42.0448 297,37.5C 293.968,29.0765 296.468,23.0765 304.5,19.5 Z"/></g>
<g><path style="opacity:0.825" fill="#fefffe" d="M 329.5,19.5 C 337.5,19.5 345.5,19.5 353.5,19.5C 353.5,21.5 353.5,23.5 353.5,25.5C 347.833,25.5 342.167,25.5 336.5,25.5C 336.5,30.1667 336.5,34.8333 336.5,39.5C 341.5,39.5 346.5,39.5 351.5,39.5C 351.5,41.5 351.5,43.5 351.5,45.5C 346.5,45.5 341.5,45.5 336.5,45.5C 336.5,51.8333 336.5,58.1667 336.5,64.5C 334.167,64.5 331.833,64.5 329.5,64.5C 329.5,49.5 329.5,34.5 329.5,19.5 Z"/></g>
<g><path style="opacity:0.803" fill="#fefffe" d="M 358.5,19.5 C 366.5,19.5 374.5,19.5 382.5,19.5C 382.5,21.5 382.5,23.5 382.5,25.5C 376.833,25.5 371.167,25.5 365.5,25.5C 365.5,29.8333 365.5,34.1667 365.5,38.5C 370.5,38.5 375.5,38.5 380.5,38.5C 380.5,40.5 380.5,42.5 380.5,44.5C 375.5,44.5 370.5,44.5 365.5,44.5C 365.5,49.1667 365.5,53.8333 365.5,58.5C 371.5,58.5 377.5,58.5 383.5,58.5C 383.5,60.5 383.5,62.5 383.5,64.5C 375.167,64.5 366.833,64.5 358.5,64.5C 358.5,49.5 358.5,34.5 358.5,19.5 Z"/></g>
<g><path style="opacity:0.847" fill="#fefffe" d="M 388.5,19.5 C 394.898,19.2427 401.231,19.7427 407.5,21C 412.745,22.9766 415.412,26.81 415.5,32.5C 414.811,34.444 414.311,36.444 414,38.5C 412.647,39.6853 411.48,41.0186 410.5,42.5C 411.48,43.9814 412.647,45.3147 414,46.5C 415.103,52.4688 415.936,58.4688 416.5,64.5C 413.881,64.7683 411.381,64.435 409,63.5C 408.667,59.8333 408.333,56.1667 408,52.5C 407.837,50.324 407.004,48.4907 405.5,47C 402.312,45.6842 398.978,45.1842 395.5,45.5C 395.5,51.8333 395.5,58.1667 395.5,64.5C 393.167,64.5 390.833,64.5 388.5,64.5C 388.5,49.5 388.5,34.5 388.5,19.5 Z M 395.5,25.5 C 406.81,24.2958 410.143,28.7958 405.5,39C 402.274,40.1989 398.941,40.6989 395.5,40.5C 395.5,35.5 395.5,30.5 395.5,25.5 Z"/></g>
<g><path style="opacity:0.954" fill="#dddddd" d="M 160.5,77.5 C 167.167,77.5 173.833,77.5 180.5,77.5C 184.506,94.5229 188.672,111.523 193,128.5C 197.8,111.972 202.3,95.3049 206.5,78.5C 212.798,77.5037 219.132,77.1703 225.5,77.5C 225.5,101.833 225.5,126.167 225.5,150.5C 220.833,150.5 216.167,150.5 211.5,150.5C 211.667,136.163 211.5,121.829 211,107.5C 207,121.5 203,135.5 199,149.5C 195.27,150.46 191.437,150.793 187.5,150.5C 183.984,136.438 180.151,122.438 176,108.5C 175.5,122.496 175.333,136.496 175.5,150.5C 170.5,150.5 165.5,150.5 160.5,150.5C 160.5,126.167 160.5,101.833 160.5,77.5 Z"/></g>
<g><path style="opacity:0.929" fill="#dddddd" d="M 235.5,77.5 C 240.5,77.5 245.5,77.5 250.5,77.5C 250.5,101.833 250.5,126.167 250.5,150.5C 245.5,150.5 240.5,150.5 235.5,150.5C 235.5,126.167 235.5,101.833 235.5,77.5 Z"/></g>
<g><path style="opacity:0.964" fill="#dddddd" d="M 260.5,77.5 C 265.5,77.5 270.5,77.5 275.5,77.5C 275.5,97.8333 275.5,118.167 275.5,138.5C 284.5,138.5 293.5,138.5 302.5,138.5C 302.5,142.5 302.5,146.5 302.5,150.5C 288.5,150.5 274.5,150.5 260.5,150.5C 260.5,126.167 260.5,101.833 260.5,77.5 Z"/></g>
<g><path style="opacity:0.95" fill="#dddddd" d="M 325.5,77.5 C 330.762,77.1953 335.928,77.5286 341,78.5C 347.679,102.217 354.512,125.884 361.5,149.5C 356.167,150.833 350.833,150.833 345.5,149.5C 344.322,145.12 342.988,140.787 341.5,136.5C 335.612,135.193 329.779,135.193 324,136.5C 322.52,141.102 321.354,145.769 320.5,150.5C 315.125,150.828 309.792,150.495 304.5,149.5C 311.506,125.471 318.506,101.471 325.5,77.5 Z M 332.5,102.5 C 334.477,109.054 336.477,115.721 338.5,122.5C 334.893,123.489 331.226,123.823 327.5,123.5C 329.323,116.541 330.99,109.541 332.5,102.5 Z"/></g>
<g><path style="opacity:0.938" fill="#dddddd" d="M 364.5,77.5 C 369.875,77.1718 375.208,77.5052 380.5,78.5C 387.667,92.8333 394.833,107.167 402,121.5C 402.5,106.837 402.667,92.1705 402.5,77.5C 407.5,77.5 412.5,77.5 417.5,77.5C 417.5,101.833 417.5,126.167 417.5,150.5C 412.125,150.828 406.792,150.495 401.5,149.5C 394.333,135.167 387.167,120.833 380,106.5C 379.5,121.163 379.333,135.83 379.5,150.5C 374.5,150.5 369.5,150.5 364.5,150.5C 364.5,126.167 364.5,101.833 364.5,77.5 Z"/></g>
</svg>
